<svg id="Livello_1" data-name="Livello 1" xmlns="http://www.w3.org/2000/svg" viewBox="0 0 120 120"><defs><style>.cls-1{fill:#3357a5;}</style></defs><title>calendario</title><path class="cls-1" d="M41,30a3,3,0,0,0,3-3V18a3,3,0,0,0-6,0v9A3,3,0,0,0,41,30Z"/><path class="cls-1" d="M79,30a3,3,0,0,0,3-3V18a3,3,0,0,0-6,0v9A3,3,0,0,0,79,30Z"/><path class="cls-1" d="M90.67,23H84v4.64A4.36,4.36,0,0,1,79.64,32H78.36A4.36,4.36,0,0,1,74,27.64V23H46v4.64A4.36,4.36,0,0,1,41.64,32H40.36A4.36,4.36,0,0,1,36,27.64V23H29.33A17.85,17.85,0,0,0,11.5,40.83V87.17A17.85,17.85,0,0,0,29.33,105H90.67A17.85,17.85,0,0,0,108.5,87.17V40.83A17.85,17.85,0,0,0,90.67,23ZM103.5,87.17A12.84,12.84,0,0,1,90.67,100H29.33A12.84,12.84,0,0,1,16.5,87.17V51.5h87Z"/></svg>