<svg id="Livello_1" data-name="Livello 1" xmlns="http://www.w3.org/2000/svg" viewBox="0 0 100 100"><title>elimina</title><g id="noun_Delete_1144251" data-name="noun Delete 1144251"><g id="Group_83" data-name="Group 83"><g id="Group_82" data-name="Group 82"><path id="Path_839" data-name="Path 839" d="M75.38,29.49,73,87.32a2.24,2.24,0,0,1-2.19,2.1h-42a2.26,2.26,0,0,1-2.2-2.1L24.11,29.49a3.29,3.29,0,1,0-6.57.28L20,87.6A8.82,8.82,0,0,0,28.72,96H70.78a8.8,8.8,0,0,0,8.75-8.39L82,29.78a3.29,3.29,0,0,0-6.57-.28Z"/><path id="Path_840" data-name="Path 840" d="M47.12,34.89V79.57a2.63,2.63,0,1,0,5.25,0V34.89a2.63,2.63,0,1,0-5.25,0Z"/><path id="Path_841" data-name="Path 841" d="M32.66,35,34,79.65a2.63,2.63,0,1,0,5.26-.16L37.92,34.81a2.63,2.63,0,1,0-5.26.16Z"/><path id="Path_842" data-name="Path 842" d="M61.57,34.81,60.26,79.49a2.63,2.63,0,1,0,5.26.16L66.83,35a2.63,2.63,0,1,0-5.26-.16Z"/><path id="Path_843" data-name="Path 843" d="M16.89,21.74H82.6a3.29,3.29,0,1,0,0-6.57H16.89a3.29,3.29,0,1,0,0,6.57Z"/><path id="Path_844" data-name="Path 844" d="M39.76,17.39l1.37-4.79a3.17,3.17,0,0,1,2.69-2H55.65a3.17,3.17,0,0,1,2.69,2l1.36,4.79L66,15.58l-1.36-4.79a9.71,9.71,0,0,0-9-6.79H43.84a9.72,9.72,0,0,0-9.06,6.8l-1.36,4.79Z"/></g></g></g></svg>