<?xml version="1.0" encoding="utf-8"?>
<!-- Generator: Adobe Illustrator 23.0.6, SVG Export Plug-In . SVG Version: 6.00 Build 0)  -->
<svg version="1.1" id="Livello_1" xmlns="http://www.w3.org/2000/svg" xmlns:xlink="http://www.w3.org/1999/xlink" x="0px" y="0px"
	 viewBox="0 0 100 100" style="enable-background:new 0 0 100 100;" xml:space="preserve">
<title>email</title>
<g id="noun_Mail_1571627">
	<g id="Group_7">
		<path id="Path_21" d="M13.6,18.7C8.3,18.7,4,23,4,28.3v42.8c0,5.3,4.3,9.6,9.6,9.6h72.7c5.3,0,9.6-4.3,9.6-9.6V28.3
			c0-5.3-4.3-9.6-9.6-9.6H13.6z M14.4,25.1h71.1L52.1,54.2c-1.2,1.1-3,1.1-4.2,0L14.4,25.1z M10.4,30.1l22.7,19.7L10.4,71L10.4,30.1
			L10.4,30.1z M89.6,30.1v41L67,49.8L89.6,30.1L89.6,30.1z M62.1,54l21.6,20.3H16.3L38,54.1l5.8,5c3.6,3.1,9,3.1,12.6,0L62.1,54
			L62.1,54z"/>
	</g>
</g>
</svg>
