<svg id="Livello_1" data-name="Livello 1" xmlns="http://www.w3.org/2000/svg" viewBox="0 0 100 100"><title>user</title><g id="noun_User_281116" data-name="noun User 281116"><g id="Path_853" data-name="Path 853"><path d="M50.34,46a21.27,21.27,0,0,1,0-42.54h.08A21.24,21.24,0,0,1,71.61,24.68,21.3,21.3,0,0,1,50.34,46Zm0-35.54A14.27,14.27,0,1,0,64.61,24.68a14.24,14.24,0,0,0-14.2-14.27Z"/></g><g id="Path_854" data-name="Path 854"><path d="M10.47,96.72A6.91,6.91,0,0,1,3.53,90a42.69,42.69,0,0,1,14-31.4,34.32,34.32,0,0,1,22.84-8.69H59.71a34.28,34.28,0,0,1,23.1,8.65h0A42.61,42.61,0,0,1,97,89.86a7.16,7.16,0,0,1-7.27,6.86H10.47ZM40.4,56.89a27.36,27.36,0,0,0-18.2,6.9A35.58,35.58,0,0,0,10.53,89.91l79.32-.19A34.74,34.74,0,0,0,78.17,63.79,27.83,27.83,0,0,0,59.74,56.9H40.4Z"/></g></g></svg>