<svg id="Livello_1" data-name="Livello 1" xmlns="http://www.w3.org/2000/svg" viewBox="0 0 139.81 67.25"><defs><style>.cls-1{fill:#1d2768;}</style></defs><g id="Group_33" data-name="Group 33"><path id="Path_64" data-name="Path 64" class="cls-1" d="M0,32.41a1.22,1.22,0,0,1,.39.48A16.07,16.07,0,0,0,2,35.28a11.69,11.69,0,0,0,6.86,4,18.84,18.84,0,0,0,4.24.3c.79,0,1.58-.08,2.36-.15s1.57-.16,2.35-.29c1.27-.21,2.55-.41,3.81-.68a51.89,51.89,0,0,0,17.64-7.27,56.39,56.39,0,0,0,11.33-9.75,23.52,23.52,0,0,0,4-6,18.73,18.73,0,0,0,1.34-4.12,9.75,9.75,0,0,0,0-4.13,8.6,8.6,0,0,0-1.67-3.45A1.14,1.14,0,0,1,54,3.31a2.3,2.3,0,0,1,.26.07,6.63,6.63,0,0,1,4.42,4.74A9.07,9.07,0,0,1,59,10.31a14.57,14.57,0,0,1-2.81,9.31A59.15,59.15,0,0,1,43.32,32.74a49.55,49.55,0,0,1-17.88,8.37c-1.66.4-3.33.73-5,1s-3.17.39-4.76.49a51.8,51.8,0,0,1-5.71.07,12.4,12.4,0,0,1-4.45-1A8.54,8.54,0,0,1,.41,35.29c-.11-.52-.15-1-.22-1.58,0-.22,0-.46-.19-.63Z"/><path id="Path_65" data-name="Path 65" class="cls-1" d="M2.19,47l.94-.1a1.4,1.4,0,0,1,.91.23c.58.35,1.17.69,1.78,1a20.32,20.32,0,0,0,5.7,1.78,25.59,25.59,0,0,0,5.6.25,40.19,40.19,0,0,0,4.51-.53,68.92,68.92,0,0,0,12.08-3.2,60,60,0,0,0,24-16.25,33.4,33.4,0,0,0,3.56-4.64,20.56,20.56,0,0,0,2.59-5.8,17.52,17.52,0,0,0,.5-6,.75.75,0,0,1,0-.15c.17-.2.4-.16.63-.16a.6.6,0,0,1,.45.24,1.67,1.67,0,0,1,.28.46,10.51,10.51,0,0,1,.74,5A19.75,19.75,0,0,1,65,24.59,24.35,24.35,0,0,1,60.34,32,73.25,73.25,0,0,1,49.86,41.5,58.73,58.73,0,0,1,34,49.85,57.42,57.42,0,0,1,25.92,52c-1.41.26-2.83.48-4.25.64-.92.1-1.83.16-2.75.23-1.42.11-2.84.18-4.26.16a17.84,17.84,0,0,1-5.92-1,14.32,14.32,0,0,1-6.4-4.75l-.09-.11Z"/><path id="Path_66" data-name="Path 66" class="cls-1" d="M3.81,20.39a4.9,4.9,0,0,1,.13.55,16,16,0,0,0,1,3.08,9.18,9.18,0,0,0,.5,1,6.26,6.26,0,0,0,4.15,3.07,12.52,12.52,0,0,0,2.44.3c1.24,0,2.49-.06,3.72-.18a43.64,43.64,0,0,0,4.54-.69A36.48,36.48,0,0,0,38.6,17.83a41.85,41.85,0,0,0,5-5.93,13.41,13.41,0,0,0,1.71-3.13,7.64,7.64,0,0,0,.52-2.5,6.52,6.52,0,0,0-.49-2.69,10.35,10.35,0,0,0-2-3.06L43,.14c.06-.13.15-.11.22-.12A5,5,0,0,1,48,2.26a6.59,6.59,0,0,1,1.12,2.8,9.06,9.06,0,0,1,0,2.75,12.17,12.17,0,0,1-.95,3.38,9.33,9.33,0,0,1-.94,1.69,47.75,47.75,0,0,1-9.7,10.32A39.19,39.19,0,0,1,22,30.57a42.19,42.19,0,0,1-4.47.78,45.42,45.42,0,0,1-6.28.34,11.12,11.12,0,0,1-4.11-.75,7,7,0,0,1-2.42-1.56,6.19,6.19,0,0,1-1.76-3.47,9.55,9.55,0,0,1,.34-4.25A4.22,4.22,0,0,1,3.81,20.39Z"/><path id="Path_67" data-name="Path 67" class="cls-1" d="M10.42,57.7c.73.19,1.46.39,2.19.56a27.49,27.49,0,0,0,3.48.59,34.67,34.67,0,0,0,4.44.23c.9,0,1.8-.07,2.7-.13a52.29,52.29,0,0,0,15-3.5,66.4,66.4,0,0,0,17.9-10.22,49.4,49.4,0,0,0,7.66-7.5,32.23,32.23,0,0,0,3.95-6,21.59,21.59,0,0,0,1.73-4.66,3.61,3.61,0,0,1,.1-.38c.16,0,.14.19.17.28a9.42,9.42,0,0,1-.21,5.61,23.76,23.76,0,0,1-1.48,3.2,32.54,32.54,0,0,1-5.1,7,48.59,48.59,0,0,1-5.49,4.95,64.93,64.93,0,0,1-13.17,8.14A59.7,59.7,0,0,1,31.61,60c-1.64.34-3.3.61-5,.82a42.8,42.8,0,0,1-4.39.34A22.39,22.39,0,0,1,16,60.44a16.9,16.9,0,0,1-5.31-2.5l-.26-.2Z"/><path id="Path_68" data-name="Path 68" class="cls-1" d="M12.63,9l.07.15a1.37,1.37,0,0,1-.16,1.44,6.34,6.34,0,0,0-1,2.4,3.89,3.89,0,0,0,0,1.73A3.22,3.22,0,0,0,13,16.77a5.66,5.66,0,0,0,2.22.77,11.21,11.21,0,0,0,3.42-.08,23.12,23.12,0,0,0,5.64-1.65,20.79,20.79,0,0,0,8.83-7.38A9,9,0,0,0,34,6.91a3.94,3.94,0,0,0-2.12-5.14,4.12,4.12,0,0,0-.76-.22,9.4,9.4,0,0,0-2.31-.16,34.41,34.41,0,0,0-4,.51c-.22,0-.44.06-.74.1l.32-.21A14.94,14.94,0,0,1,28.81.25,13.61,13.61,0,0,1,34.42.5a5.56,5.56,0,0,1,1.46.63,4.1,4.1,0,0,1,2,3.38,6.93,6.93,0,0,1-.45,2.74,13.79,13.79,0,0,1-2.88,4.66A15.68,15.68,0,0,1,33,13.37,33.56,33.56,0,0,1,24.17,19a23,23,0,0,1-5.37,1.57,21.83,21.83,0,0,1-4,.3,9.32,9.32,0,0,1-2.63-.35,4.29,4.29,0,0,1-3-3,5.74,5.74,0,0,1,.18-4,9.42,9.42,0,0,1,1-1.81,28.44,28.44,0,0,1,2.13-2.63Z"/><path id="Path_69" data-name="Path 69" class="cls-1" d="M111.73,33.43a.47.47,0,0,1-.06-.15V21.34a.71.71,0,0,1,0-.2l.33,0h4.84a3.25,3.25,0,0,1,3.2,3.29,3.05,3.05,0,0,1-.06.6,2.52,2.52,0,0,1-.7,1.3l-.36.36.35.22a3,3,0,0,1,1.48,2.21,4,4,0,0,1-.25,2.23,3.27,3.27,0,0,1-3.11,2.14c-1.82,0-3.65,0-5.47,0Zm1.72-1.7a.64.64,0,0,0,.2,0h3.73a1.6,1.6,0,0,0,1.42-.85,2.18,2.18,0,0,0,.3-1.3,1.84,1.84,0,0,0-1.82-1.86h-.11c-1.11,0-2.22,0-3.33,0l-.39,0a1.59,1.59,0,0,0-.06.3,31.8,31.8,0,0,0,.06,3.65Zm0-5.71.42,0H115c.61,0,1.22,0,1.83,0a1.41,1.41,0,0,0,1.38-1,2.14,2.14,0,0,0,.12-.57A1.54,1.54,0,0,0,117,22.75h-3.21a1.64,1.64,0,0,0-.32.05.66.66,0,0,0-.06.2v2.74a1.26,1.26,0,0,0,0,.28Z"/><path id="Path_70" data-name="Path 70" class="cls-1" d="M89.72,25.4a5.77,5.77,0,0,1-1.76,0,.82.82,0,0,1-.09-.19A3.51,3.51,0,0,0,85.41,23a4.55,4.55,0,0,0-2.85,0,4.19,4.19,0,0,0-2.77,2.82,4.86,4.86,0,0,0,.1,3.32,4.14,4.14,0,0,0,3.26,2.72,4.37,4.37,0,0,0,3-.53,3.86,3.86,0,0,0,1.5-1.6,2.83,2.83,0,0,0,.11-.31.67.67,0,0,0-.44-.07h-4a1,1,0,0,1-.07-.29c0-.45,0-.9,0-1.32.18-.17.37-.11.54-.12h6a1.09,1.09,0,0,1,0,.25c0,.43-.08.87-.15,1.3a4.33,4.33,0,0,1-.8,1.79,6.23,6.23,0,0,1-4.17,2.57A5.91,5.91,0,0,1,78,28.62v0a6.64,6.64,0,0,1,.62-4.42,5.73,5.73,0,0,1,4.27-3.07,6.53,6.53,0,0,1,3.92.51,5.16,5.16,0,0,1,2.9,3.32A.89.89,0,0,1,89.72,25.4Z"/><path id="Path_71" data-name="Path 71" class="cls-1" d="M110.49,27.33a6.31,6.31,0,1,1-6.21-6.41A6.3,6.3,0,0,1,110.49,27.33Zm-6.29,4.52a4.59,4.59,0,1,0-4.57-4.61v.06a4.58,4.58,0,0,0,4.56,4.56Z"/><path id="Path_72" data-name="Path 72" class="cls-1" d="M65.79,47.22a8.9,8.9,0,0,1-.69,1.89,14.79,14.79,0,0,1-2.21,3.23,28.44,28.44,0,0,1-4.15,3.83,49.27,49.27,0,0,1-7.63,4.74,61.55,61.55,0,0,1-13.37,5,45.49,45.49,0,0,1-5.18,1,40,40,0,0,1-4.77.35c-.43,0-.87,0-1.3-.07-.09,0-.2,0-.25-.09,1.14-.14,2.3-.28,3.44-.45,1.69-.25,3.37-.57,5-1a59.29,59.29,0,0,0,12.54-4.47,59.71,59.71,0,0,0,12.22-8,68.52,68.52,0,0,0,5.92-5.64l.3-.31Z"/><path id="Path_73" data-name="Path 73" class="cls-1" d="M131.91,33.43l-.18,0h-1.57c-.07-.17-.15-.33-.21-.49l-1.08-2.64-.22-.5-.23,0h-4.07l-.18,0a4,4,0,0,0-.18.36c-.39.93-.77,1.87-1.16,2.81-.06.15-.12.29-.18.45h-1.77c-.09-.18,0-.32.08-.45.51-1.3,1-2.6,1.55-3.91,1-2.51,2-5,3-7.54l.24-.58a1.68,1.68,0,0,1,.63,0H127c.06.12.12.22.16.32l4.77,12.08S131.92,33.38,131.91,33.43Zm-4-5.32a.61.61,0,0,0,0-.19c-.46-1.32-.92-2.65-1.39-4,0,0-.07-.06-.11-.11a1.62,1.62,0,0,0-.1.18l-1.38,3.86a.65.65,0,0,0,0,.24.65.65,0,0,0,.2,0h2.66l.14-.05Z"/><path id="Path_74" data-name="Path 74" class="cls-1" d="M134,31.67a1.1,1.1,0,0,0,.57.06h5.12a1.67,1.67,0,0,1,.09.83c0,.27,0,.54,0,.79-.15.15-.3.11-.45.11h-6.57l-.5,0c0-.11,0-.2-.05-.3a2.8,2.8,0,0,1,0-.29V21.69c0-.17,0-.35,0-.51a5.2,5.2,0,0,1,1.67,0,1.34,1.34,0,0,1,0,.56v9.48A1,1,0,0,0,134,31.67Z"/><path id="Path_75" data-name="Path 75" class="cls-1" d="M92.82,31.65a1.36,1.36,0,0,0,.63.08h5.13a2.12,2.12,0,0,1,.08.83c0,.27,0,.54,0,.81a.84.84,0,0,1-.54.07H91.58l-.44,0a1.17,1.17,0,0,1,0-.2c0-.14,0-.29,0-.43v-11a1.78,1.78,0,0,1,.06-.65,12.85,12.85,0,0,1,1.64,0,17.43,17.43,0,0,1,0,1.77v7C92.82,30.47,92.81,31.05,92.82,31.65Z"/><path id="Path_76" data-name="Path 76" class="cls-1" d="M91,35.17l.35,0h2.76a3.2,3.2,0,0,1,.62.09,2,2,0,0,1,.4.17,2.08,2.08,0,0,1,.9,2.18,1.9,1.9,0,0,1-.31.6c-.08.1-.17.19-.28.31l.22.18a1.9,1.9,0,0,1,.88,1.49,2.56,2.56,0,0,1-.08.91,2,2,0,0,1-2,1.57H91.36l-.3,0c-.07-.63,0-1.23,0-1.84s0-1.26,0-1.89V35.17Zm1.08,4a2.38,2.38,0,0,0,0,.8c0,.28,0,.55,0,.82a3,3,0,0,0,0,.74c.06,0,.08,0,.11,0,.78,0,1.55,0,2.32,0a1,1,0,0,0,.83-.5,1.37,1.37,0,0,0,.08-1.26,1.08,1.08,0,0,0-.92-.68H92.56l-.47,0Zm0-1.1c.28,0,1.94.06,2.15,0a.79.79,0,0,0,.54-.29,1.1,1.1,0,0,0,.16-1.18.83.83,0,0,0-.88-.53H92.36a1.24,1.24,0,0,0-.27,0,8.8,8.8,0,0,0,0,1.92Z"/><path id="Path_77" data-name="Path 77" class="cls-1" d="M86.45,35a3.85,3.85,0,1,1-3.84,3.86v0A3.84,3.84,0,0,1,86.44,35Zm2.76,3.85a2.78,2.78,0,1,0-2.79,2.8,2.78,2.78,0,0,0,2.79-2.8v0Z"/><path id="Path_78" data-name="Path 78" class="cls-1" d="M115.2,39.83a9.88,9.88,0,0,0,.76,1c.24.3.5.59.74.89l.73.87,0,.08h-1.2a2,2,0,0,1-.2-.21l-2.36-2.82a.58.58,0,0,1-.14-.66,1.22,1.22,0,0,1,.57-.07c.3,0,.61,0,.91,0a1.27,1.27,0,0,0,1.1-1.22,1.29,1.29,0,0,0-1-1.36.69.69,0,0,0-.24-.05c-.59,0-1.19,0-1.8,0a2.46,2.46,0,0,0-.07.29c0,.14,0,.29,0,.43v5.17c0,.18,0,.35,0,.55a3.86,3.86,0,0,1-1,0,1.65,1.65,0,0,1,0-.32V35.53c0-.11,0-.22,0-.35l.25,0c.87,0,1.74,0,2.61,0a2.17,2.17,0,0,1,2,1.13,2.39,2.39,0,0,1,0,2.36,2,2,0,0,1-1.12,1Z"/><path id="Path_79" data-name="Path 79" class="cls-1" d="M106.85,35.16h4.47a2,2,0,0,1,.05,1l-.39,0h-3a2.38,2.38,0,0,0-.09,1.06,7.22,7.22,0,0,0,0,1,.73.73,0,0,0,.5.09h2.32l.53,0a2.44,2.44,0,0,1,0,.93.81.81,0,0,1-.53.09H108.5l-.54,0a2.76,2.76,0,0,0-.07,1.07,3.56,3.56,0,0,0,0,1,.59.59,0,0,0,.43.08h2.52l.5,0a4.31,4.31,0,0,1,0,.95.87.87,0,0,1-.22.05h-4.11l-.14,0a.73.73,0,0,1-.08-.52V35.67C106.83,35.52,106.84,35.37,106.85,35.16Z"/><path id="Path_80" data-name="Path 80" class="cls-1" d="M100.83,40.55l.49,0h.4s.08.07.09.1a1.33,1.33,0,0,0,1,.94,2.13,2.13,0,0,0,1.9-.22,1,1,0,0,0,.53-1,.7.7,0,0,0-.43-.65,3.48,3.48,0,0,0-.78-.22c-.45-.08-.9-.12-1.34-.2a3.72,3.72,0,0,1-.65-.19A1.84,1.84,0,0,1,100.84,37a1.89,1.89,0,0,1,.9-1.43,3.09,3.09,0,0,1,3.08-.23,2,2,0,0,1,1.15,1.3.58.58,0,0,1,0,.19.36.36,0,0,1,0,.11,2.82,2.82,0,0,1-.87.07S105,37,105,36.94a1.66,1.66,0,0,0-1.83-.86,1.94,1.94,0,0,0-.81.3,1,1,0,0,0-.48.64.9.9,0,0,0,.51,1.08,3,3,0,0,0,.93.22c.4.06.8.12,1.19.2a3.25,3.25,0,0,1,.6.2,1.89,1.89,0,0,1,1,2.46,2.71,2.71,0,0,1-.21.37,2.09,2.09,0,0,1-.66.63,3.2,3.2,0,0,1-3.44.06,2,2,0,0,1-.94-1.12A.86.86,0,0,1,100.83,40.55Z"/><path id="Path_81" data-name="Path 81" class="cls-1" d="M133.67,39.87h.72l.21,0a2.93,2.93,0,0,1,0,.29A3.61,3.61,0,0,1,130,42.51a3.49,3.49,0,0,1-1.58-1,3.86,3.86,0,0,1-.15-5,3.52,3.52,0,0,1,2.9-1.39,3.47,3.47,0,0,1,3.34,2.45,1.42,1.42,0,0,1,0,.2.94.94,0,0,1-.47.06l-.49,0c-.07-.14-.14-.26-.21-.39a2.43,2.43,0,0,0-2-1.27,2.69,2.69,0,0,0-2.86,2.27,2.77,2.77,0,0,0,1.85,3.13,2.64,2.64,0,0,0,3.08-1.19A5.21,5.21,0,0,0,133.67,39.87Z"/><path id="Path_82" data-name="Path 82" class="cls-1" d="M135.27,42.59c-.06-.38-.1-6.2-.05-7.12a2.5,2.5,0,0,1,.05-.29,11.87,11.87,0,0,1,1.46,0h3a2.21,2.21,0,0,1,.05,1,2.33,2.33,0,0,1-.38,0H136.8a.94.94,0,0,0-.47.06,8.43,8.43,0,0,0,0,2.07.89.89,0,0,0,.51.06h2.27a1,1,0,0,1,.52.07,1.65,1.65,0,0,1,0,.91.86.86,0,0,1-.5.06h-2.28l-.51,0a9.12,9.12,0,0,0,0,2.09c.12.12.27.08.41.08h2.51l.5,0a3,3,0,0,1,0,1A39.57,39.57,0,0,1,135.27,42.59Z"/><path id="Path_83" data-name="Path 83" class="cls-1" d="M119.92,40.78c.34-.7.55-1.32.8-1.93s.5-1.22.74-1.84.5-1.22.74-1.83a5.91,5.91,0,0,1,1,0,.47.47,0,0,1,0,.17c-1,2.43-1.95,4.87-2.92,7.31h-.76a15.41,15.41,0,0,1-.62-1.45l-.6-1.48c-.2-.51-.4-1-.61-1.52s-.4-1-.59-1.48-.41-1-.57-1.5a1.1,1.1,0,0,1,.54-.05h.46a1,1,0,0,1,.28.52q.91,2.27,1.8,4.53C119.73,40.36,119.8,40.52,119.92,40.78Z"/><path id="Path_84" data-name="Path 84" class="cls-1" d="M126,41.6l1.3,0a2.21,2.21,0,0,1,0,1,17.07,17.07,0,0,1-1.89,0h-1.82a1.5,1.5,0,0,1-.06-1c.41-.13.86,0,1.3-.1a2.56,2.56,0,0,0,0-.27V36.51a2.43,2.43,0,0,0,0-.3c-.43-.08-.86,0-1.29-.06a2.08,2.08,0,0,1,0-1,5.79,5.79,0,0,1,1.25,0h2.47a1.91,1.91,0,0,1,0,1c-.44.1-.88,0-1.32.08a1.31,1.31,0,0,0-.06.27q0,2.42,0,4.83A1.35,1.35,0,0,0,126,41.6Z"/><path id="Path_85" data-name="Path 85" class="cls-1" d="M82.08,35.16c0,.18,0,.32,0,.46,0,1.22,0,2.45,0,3.67a4.91,4.91,0,0,1-.07.86A2.72,2.72,0,0,1,80.77,42a4.16,4.16,0,0,1-1.63.59,3,3,0,0,1-1.07.07,2.22,2.22,0,0,1,0-1l.92-.13a3.18,3.18,0,0,0,1.3-.5,1.78,1.78,0,0,0,.82-1.46c0-1.05,0-2.09,0-3.14a1.18,1.18,0,0,0,0-.2,3.44,3.44,0,0,0-1,0c-.32,0-.64,0-.95,0a1.69,1.69,0,0,1,0-1l0,0h0l2.51,0Z"/></g></svg>