<svg xmlns="http://www.w3.org/2000/svg" viewBox="0 0 512 512"><path d="M256,0C114.62,0,0,114.62,0,256S114.62,512,256,512,512,397.39,512,256,397.38,0,256,0ZM360,130.66a7.73,7.73,0,0,1-7.88,7.57H318.4c-23,0-27.34,8.91-27.34,26.74v37h59.43a7.73,7.73,0,0,1,7.73,7.73V273a7.87,7.87,0,0,1-7.88,7.87H290.92V440.41a7.73,7.73,0,0,1-7.73,7.73H217.82a7.87,7.87,0,0,1-7.87-7.88V280.85H159.58A7.72,7.72,0,0,1,152,273V209.69a7.73,7.73,0,0,1,7.72-7.73H210V158.29c0-57.5,36.25-94.64,92.26-94.64h49.91A7.73,7.73,0,0,1,360,70.93Z" transform="translate(0 0)" fill="#fff"/></svg>