<svg xmlns="http://www.w3.org/2000/svg" viewBox="0 0 512 512"><circle cx="256" cy="256" r="60.02" fill="#fff"/><path d="M396.3,149.77a58.71,58.71,0,0,0-34.07-34.07,98.81,98.81,0,0,0-33.46-6.3c-18.9-1.05-24.75-1.05-72.77-1.05l-.6-.45c-48.17,0-53.72.9-72.92.9a97.54,97.54,0,0,0-33.32,6.3A60.09,60.09,0,0,0,115,149.31a99,99,0,0,0-6.3,33.62c-1.05,19-1.05,25-1.05,72.92s.3,53.72,1.05,72.62a98.93,98.93,0,0,0,6.3,33.61,53.85,53.85,0,0,0,13.51,20.71A55.75,55.75,0,0,0,149,396.3a107.48,107.48,0,0,0,33.62,6.3c19.05,1,24.75,1,72.92,1s53.72-.15,72.92-1a101.85,101.85,0,0,0,33.46-6.15,54.47,54.47,0,0,0,20.71-13.51,55.7,55.7,0,0,0,13.51-20.71,98.81,98.81,0,0,0,6.3-33.46c1.2-18.9,1.2-24.75,1.2-72.77s-.3-53.72-1-72.77A98.81,98.81,0,0,0,396.3,149.77ZM256,348.43A92.43,92.43,0,1,1,348.43,256,92.43,92.43,0,0,1,256,348.43Zm96.18-166.85A21.61,21.61,0,1,1,373.79,160,21.62,21.62,0,0,1,352.18,181.58Z" fill="#fff"/><path d="M256,0C114.64,0,0,114.64,0,256S114.64,512,256,512,512,397.36,512,256,397.36,0,256,0ZM435,331a131.79,131.79,0,0,1-8.4,42.92,92,92,0,0,1-52.67,52.67,132,132,0,0,1-43.67,8.4c-19.2,1.05-25.35,1.05-74.27,1.05s-55.07,0-74.27-.3a132,132,0,0,1-43.67-8.4,91.1,91.1,0,0,1-52.67-52.67A132,132,0,0,1,77,331c-1-19.95-1-26.1-1-75s0-55.07,1-74.27a132,132,0,0,1,8.4-43.67,91.1,91.1,0,0,1,52.67-52.67A132,132,0,0,1,181.73,77c19.2-1,25.35-1,74.27-1s55.07,0,75,1a131.79,131.79,0,0,1,42.92,8.4,91.1,91.1,0,0,1,52.67,52.67,132,132,0,0,1,8.4,43.67c1.05,19.2,1.05,25.35,1.05,74.27S436.06,311.07,435,331Z" fill="#fff"/></svg>