<svg xmlns="http://www.w3.org/2000/svg" viewBox="0 0 512 512"><path d="M256,0C114.64,0,0,114.64,0,256S114.64,512,256,512,512,397.36,512,256,397.36,0,256,0ZM394.31,185v9.32c0,94.33-71.71,202.86-202.86,202.86A201.78,201.78,0,0,1,82,365.24a144.74,144.74,0,0,0,17.16.91,144,144,0,0,0,88.65-30.46,71.38,71.38,0,0,1-66.71-49.55,89.76,89.76,0,0,0,13.41,1.13,75.37,75.37,0,0,0,18.86-2.16,71.36,71.36,0,0,1-56.82-70V214a71.37,71.37,0,0,0,32.16,9.09,71.38,71.38,0,0,1-22.05-95.47,203.08,203.08,0,0,0,146.73,74.67A77.85,77.85,0,0,1,251.68,186a71.38,71.38,0,0,1,123.43-48.64,144,144,0,0,0,45.46-17.16,70.51,70.51,0,0,1-31.71,39A143.26,143.26,0,0,0,430,147.82,152.6,152.6,0,0,1,394.31,185Z" fill="#fff"/></svg>