<svg id="Livello_1" data-name="Livello 1" xmlns="http://www.w3.org/2000/svg" viewBox="0 0 120 120"><title>24-phone</title><path d="M80.22,105.84c-9.12,0-21.38-5.38-37.47-22C30.48,71.11,17.06,51.81,22.8,32c1.71-5.8,7-15,14.73-16.95a5.65,5.65,0,0,1,3.35.16c2.69.82,4.95,3.12,6.44,4.65l.23.24a60.89,60.89,0,0,1,5.77,6.59l.74.95a27.5,27.5,0,0,1,3.28,5.08C60.19,39.05,56.78,43,54,46.08a54.73,54.73,0,0,1-4.57,4.19c.73,1.83,2.17,4.9,2.76,6a48.43,48.43,0,0,0,5.05,7.77,52.46,52.46,0,0,0,6.66,6.86L64,71c.78.73,3.54,3.09,5.22,4.33l2.19-1.66c.42-.31.84-.68,1.27-1.06,1.93-1.67,4.57-4,8.13-3.59,3.41.36,6.61,3.57,10.13,7.43.62.68,1.21,1.32,1.64,1.74,3.07,3.11,7.65,7.75,7.26,13.7-.3,3.06-2.25,6-5.8,8.87A21.23,21.23,0,0,1,80.22,105.84ZM38.94,20.92c-4.46,1.12-8.77,7.37-10.38,12.8-4.93,17,7.34,34.36,18.51,45.92,18.62,19.28,33.16,24.83,43.21,16.48,3-2.39,3.54-4,3.61-4.72.21-3.16-3-6.37-5.51-9-.51-.5-1.12-1.17-1.83-1.94C85.2,79,81.64,75.15,80.22,75c-1-.1-2.3,1-3.58,2.15-.51.44-1,.9-1.58,1.32l-3.69,2.79C69.11,83,66.7,81,63.9,78.78c-1.75-1.42-3.47-2.94-3.94-3.37a59.45,59.45,0,0,1-7.38-7.62,54.24,54.24,0,0,1-5.67-8.73c-.25-.47-1.27-2.55-2.16-4.56-1.48-3.34-2.55-5.76-.69-7.52l.16-.14c1.61-1.33,4.49-3.79,5.32-4.73,2.73-3.11,3.53-4.22,2.35-6.85a21.65,21.65,0,0,0-2.57-3.91l-.71-.9a54.67,54.67,0,0,0-5.22-6L43,24.09c-.94-1-2.69-2.75-3.91-3.11L39,20.93Z"/></svg>