<svg id="Livello_1" data-name="Livello 1" xmlns="http://www.w3.org/2000/svg" viewBox="0 0 42.5 64.56"><defs><style>.cls-1{fill:#fff;fill-rule:evenodd;}</style></defs><g id="Group_37" data-name="Group 37"><path id="Path_12" data-name="Path 12" class="cls-1" d="M42.5,12.63v0a.78.78,0,0,0,0-.16h0c0-.06,0-.11,0-.16l0,0-.06-.14h0a1.1,1.1,0,0,0-.09-.14l0,0-.11-.13L30.72.37a.69.69,0,0,0-.13-.11l0,0a.42.42,0,0,0-.14-.09h0a.35.35,0,0,0-.14-.06l0,0-.16,0h0l-.16,0H1.26A1.25,1.25,0,0,0,0,1.26v54a1.25,1.25,0,0,0,1.26,1.26h19V63.3a1.25,1.25,0,0,0,1.26,1.26,1.33,1.33,0,0,0,.67-.19l4.8-3,4.8,3A1.26,1.26,0,0,0,33.52,64a1.25,1.25,0,0,0,.19-.68V56.49h7.53a1.25,1.25,0,0,0,1.26-1.26V12.63ZM31.09,4.31l7.11,7.1H31.09ZM19.62,39a4.55,4.55,0,0,1-.23-.8,3.37,3.37,0,0,1,.65-.47,4.42,4.42,0,0,0,1.32-1.11A4.34,4.34,0,0,0,22,35a4.79,4.79,0,0,1,.24-.73,1.62,1.62,0,0,1,.31,0l.46,0h.6a3.44,3.44,0,0,0,1.15-.16,4.69,4.69,0,0,0,1.46-.9,3.26,3.26,0,0,1,.73-.5,3,3,0,0,1,.75.5,4.69,4.69,0,0,0,1.46.9,3.44,3.44,0,0,0,1.15.16h.6l.46,0a1.56,1.56,0,0,1,.31,0,4.79,4.79,0,0,1,.24.73,4.49,4.49,0,0,0,.65,1.62,4.58,4.58,0,0,0,1.33,1.11,3.37,3.37,0,0,1,.65.47,4.55,4.55,0,0,1-.23.8,4.7,4.7,0,0,0-.4,1.73,4.91,4.91,0,0,0,.4,1.73,4.55,4.55,0,0,1,.23.8,3.37,3.37,0,0,1-.65.47,3.62,3.62,0,0,0-2,2.72,3.65,3.65,0,0,1-.23.73,1.08,1.08,0,0,1-.31,0h-.46l-.6,0a3.44,3.44,0,0,0-1.15.16,4.88,4.88,0,0,0-1.46.9,3.48,3.48,0,0,1-.74.51,3.48,3.48,0,0,1-.74-.51,4.88,4.88,0,0,0-1.46-.9,3.44,3.44,0,0,0-1.15-.16l-.6,0h-.46a1.06,1.06,0,0,1-.31,0A4.46,4.46,0,0,1,22,46.4a4.29,4.29,0,0,0-.66-1.61A4.28,4.28,0,0,0,20,43.68a3.85,3.85,0,0,1-.65-.47,4.11,4.11,0,0,1,.23-.8,5,5,0,0,0,.4-1.74A4.86,4.86,0,0,0,19.62,39ZM31.19,61,27.65,58.8a1.25,1.25,0,0,0-1.34,0L22.77,61V49.67h.39l.47,0a1,1,0,0,1,.35,0,3.51,3.51,0,0,1,.67.47A3.74,3.74,0,0,0,27,51.21a3.71,3.71,0,0,0,2.32-1.07,3.51,3.51,0,0,1,.67-.47,1.46,1.46,0,0,1,.36,0l.46,0h.4V61ZM33.71,54V48.66A4.65,4.65,0,0,0,34.38,47a2.88,2.88,0,0,1,.25-.75,3.3,3.3,0,0,1,.64-.47A3.59,3.59,0,0,0,37,44a3.6,3.6,0,0,0-.27-2.46,3.31,3.31,0,0,1-.24-.87,3.14,3.14,0,0,1,.24-.86A3.62,3.62,0,0,0,37,37.36a3.51,3.51,0,0,0-1.7-1.8,3.3,3.3,0,0,1-.64-.47,3,3,0,0,1-.25-.76,3.58,3.58,0,0,0-1.18-2.15,3,3,0,0,0-1.81-.5l-.59,0-.47,0a1,1,0,0,1-.35,0,3.51,3.51,0,0,1-.67-.47A3.68,3.68,0,0,0,27,30.16a3.65,3.65,0,0,0-2.32,1.06,3.85,3.85,0,0,1-.67.47,1.1,1.1,0,0,1-.36,0l-.47,0-.59,0a3.07,3.07,0,0,0-1.81.5,3.58,3.58,0,0,0-1.18,2.15,2.88,2.88,0,0,1-.25.75,3.3,3.3,0,0,1-.64.47,3.59,3.59,0,0,0-1.7,1.8,3.6,3.6,0,0,0,.27,2.46,3.31,3.31,0,0,1,.24.87,3.35,3.35,0,0,1-.24.86A3.61,3.61,0,0,0,17,44a3.59,3.59,0,0,0,1.7,1.8,3.3,3.3,0,0,1,.64.47,2.83,2.83,0,0,1,.25.76,4.6,4.6,0,0,0,.67,1.62V54H2.52V2.52H28.57V12.67a1.25,1.25,0,0,0,1.26,1.26H40V54Z"/><path id="Path_13" data-name="Path 13" class="cls-1" d="M7.42,13.93H23.67a1.26,1.26,0,0,0,0-2.52H7.42a1.26,1.26,0,0,0,0,2.52Z"/><path id="Path_14" data-name="Path 14" class="cls-1" d="M35.22,17.78H7.42a1.26,1.26,0,1,0,0,2.52h27.8a1.26,1.26,0,1,0,0-2.52Z"/><path id="Path_15" data-name="Path 15" class="cls-1" d="M30.17,24.14H7.42a1.26,1.26,0,0,0,0,2.52H30.17a1.26,1.26,0,1,0,0-2.52Z"/><path id="Path_16" data-name="Path 16" class="cls-1" d="M35.22,24.14a1.26,1.26,0,1,0,1.26,1.26h0A1.26,1.26,0,0,0,35.22,24.14Z"/></g></svg>