<svg xmlns="http://www.w3.org/2000/svg" viewBox="0 0 24 24"><path d="M12,0C8.74,0,8.33,0,7.05.07A8.79,8.79,0,0,0,4.14.63,6.07,6.07,0,0,0,.63,4.14,8.79,8.79,0,0,0,.07,7.05C0,8.33,0,8.74,0,12S0,15.67.07,17a8.79,8.79,0,0,0,.56,2.91,6.07,6.07,0,0,0,3.51,3.51,8.79,8.79,0,0,0,2.91.56C8.33,24,8.74,24,12,24s3.67,0,4.95-.07a8.79,8.79,0,0,0,2.91-.56,6.13,6.13,0,0,0,3.51-3.51A8.79,8.79,0,0,0,23.93,17C24,15.67,24,15.26,24,12s0-3.67-.07-4.95a8.79,8.79,0,0,0-.56-2.91A6.07,6.07,0,0,0,19.86.63,8.79,8.79,0,0,0,17,.07C15.67,0,15.26,0,12,0Zm0,2.16c3.2,0,3.59,0,4.85.07a6.58,6.58,0,0,1,2.23.42,3.91,3.91,0,0,1,2.27,2.27,6.58,6.58,0,0,1,.42,2.23c.05,1.27.07,1.65.07,4.85s0,3.59-.08,4.85a6.58,6.58,0,0,1-.42,2.23,3.71,3.71,0,0,1-.9,1.38,3.63,3.63,0,0,1-1.38.9,6.77,6.77,0,0,1-2.23.41c-1.28.06-1.65.07-4.86.07s-3.59,0-4.86-.07a7.16,7.16,0,0,1-2.24-.42,3.72,3.72,0,0,1-1.37-.9,3.59,3.59,0,0,1-.9-1.38,6.59,6.59,0,0,1-.42-2.24c-.05-1.26-.07-1.65-.07-4.84s0-3.59.07-4.86A6.59,6.59,0,0,1,2.6,4.89a3.63,3.63,0,0,1,.9-1.38,3.63,3.63,0,0,1,1.38-.9A6.48,6.48,0,0,1,7.1,2.19c1.28,0,1.65-.06,4.86-.06Zm0,3.68A6.16,6.16,0,1,0,18.16,12,6.16,6.16,0,0,0,12,5.84ZM12,16a4,4,0,1,1,4-4A4,4,0,0,1,12,16ZM19.85,5.6a1.44,1.44,0,1,1-1.44-1.44h0A1.45,1.45,0,0,1,19.85,5.6Z" transform="translate(0 0)" fill="#fff"/></svg>