<svg id="Livello_1" data-name="Livello 1" xmlns="http://www.w3.org/2000/svg" viewBox="0 0 78.72 78.14"><defs><style>.cls-1{fill:#fff;}</style></defs><g id="Group_34" data-name="Group 34"><path id="Path_3" data-name="Path 3" class="cls-1" d="M23.32,33.84v0A8.5,8.5,0,0,0,28.17,42h0a5.7,5.7,0,0,1,2.58,2.49l0,0a8.87,8.87,0,0,0,8.34,4.65h0a6.16,6.16,0,0,1,3.6.93,9.1,9.1,0,0,0,9.66,0A6.12,6.12,0,0,1,56,49.18h.05a8.91,8.91,0,0,0,8.35-4.66v0A5.68,5.68,0,0,1,67,42h0a8.53,8.53,0,0,0,4.85-8.11v0a5.4,5.4,0,0,1,.94-3.37,8.36,8.36,0,0,0,0-9.45,5.44,5.44,0,0,1-1-3.37v0a8.49,8.49,0,0,0-4.85-8.1l0,0A5.7,5.7,0,0,1,64.44,7V7a8.87,8.87,0,0,0-8.34-4.65H56a6,6,0,0,1-3.59-.94h0a9.14,9.14,0,0,0-9.66,0,6.08,6.08,0,0,1-3.59.94h-.06A8.87,8.87,0,0,0,30.8,7V7A5.68,5.68,0,0,1,28.2,9.48l0,0a8.49,8.49,0,0,0-4.85,8.1v0A5.46,5.46,0,0,1,22.37,21a8.36,8.36,0,0,0,0,9.45A5.47,5.47,0,0,1,23.32,33.84Zm1.47-11.15a8.39,8.39,0,0,0,1.46-5.2v0a5.56,5.56,0,0,1,3.2-5.3l0,0a8.58,8.58,0,0,0,3.91-3.76l0,0A5.94,5.94,0,0,1,39,5.24h0a8.89,8.89,0,0,0,5.31-1.38,6.17,6.17,0,0,1,6.54,0,9,9,0,0,0,5.3,1.39h.05a5.91,5.91,0,0,1,5.59,3.08l0,0a8.6,8.6,0,0,0,3.9,3.76h0a5.58,5.58,0,0,1,3.2,5.3v0a8.35,8.35,0,0,0,1.46,5.2,5.39,5.39,0,0,1,0,6.12A8.39,8.39,0,0,0,69,34v.05a5.57,5.57,0,0,1-3.2,5.3h0a8.65,8.65,0,0,0-3.91,3.77v0a6,6,0,0,1-5.6,3.1h-.05a8.89,8.89,0,0,0-5.31,1.38,6.15,6.15,0,0,1-6.53,0,8.94,8.94,0,0,0-4.82-1.4l-.5,0H39a6,6,0,0,1-5.59-3.1l0,0a8.63,8.63,0,0,0-3.9-3.75l0,0a5.56,5.56,0,0,1-3.2-5.3V34a8.37,8.37,0,0,0-1.46-5.2,5.43,5.43,0,0,1,0-6.12Z"/><path id="Path_4" data-name="Path 4" class="cls-1" d="M38.16,40.9a1.47,1.47,0,0,0,2-.46h0L57.54,12.62A1.47,1.47,0,1,0,55.08,11l0,.05L37.69,38.88a1.47,1.47,0,0,0,.46,2Z"/><path id="Path_5" data-name="Path 5" class="cls-1" d="M39.71,25.82c3.57,0,6.48-3.31,6.48-7.38s-2.9-7.38-6.48-7.38-6.47,3.31-6.47,7.38S36.14,25.82,39.71,25.82Zm0-11.83c2,0,3.54,2,3.54,4.45s-1.58,4.45-3.54,4.45-3.54-2-3.54-4.45S37.76,14,39.71,14Z"/><path id="Path_6" data-name="Path 6" class="cls-1" d="M49,33.06c0,4.07,2.9,7.38,6.47,7.38S62,37.13,62,33.06s-2.9-7.38-6.48-7.38S49,29,49,33.06Zm10,0c0,2.46-1.59,4.45-3.55,4.45S52,35.51,52,33.06s1.59-4.45,3.54-4.45,3.55,2,3.55,4.45Z"/><path id="Path_7" data-name="Path 7" class="cls-1" d="M78.53,57.4a7.39,7.39,0,0,0-9.77-3L57.27,59.84a9.35,9.35,0,0,0-8-4.92l-10.6-.29a11.26,11.26,0,0,1-4.82-1.24l-1.08-.56a19,19,0,0,0-17.62,0l.07-2.44a1.46,1.46,0,0,0-1.42-1.51h0L2.2,48.58A1.46,1.46,0,0,0,.7,50h0L0,75.51A1.48,1.48,0,0,0,1.42,77h0l11.63.32h0a1.48,1.48,0,0,0,1.46-1.43l0-1.22,3-1.62a5.18,5.18,0,0,1,3.86-.42l18,5.06.1,0a18.81,18.81,0,0,0,4,.41,19.36,19.36,0,0,0,8.17-1.78.77.77,0,0,0,.18-.1L78.06,59.35A1.45,1.45,0,0,0,78.53,57.4ZM3,74.12l.62-22.57,8.69.24-.62,22.58Zm47.44-.38a16.59,16.59,0,0,1-10.16,1.13l-18-5a8.09,8.09,0,0,0-6,.66l-1.54.82.41-15a16.11,16.11,0,0,1,16.37-.88l1.08.56a14,14,0,0,0,6.08,1.57l10.6.3A6.41,6.41,0,0,1,55.33,63l-15.78-.44a1.47,1.47,0,1,0-.08,2.93h0L56.89,66h0a1.46,1.46,0,0,0,1.46-1.42,9.25,9.25,0,0,0-.14-1.9L70,57.06h0a4.45,4.45,0,0,1,5.06.71Z"/></g></svg>