<svg xmlns="http://www.w3.org/2000/svg" viewBox="0 0 30.62 24.86"><path d="M27.48,6.19c0,.27,0,.55,0,.82,0,8.3-6.31,17.85-17.85,17.85A17.75,17.75,0,0,1,0,22.05a12.62,12.62,0,0,0,1.51.08,12.66,12.66,0,0,0,7.8-2.68,6.28,6.28,0,0,1-5.87-4.36,7.83,7.83,0,0,0,1.18.1A6.64,6.64,0,0,0,6.28,15a6.28,6.28,0,0,1-5-6.16V8.74a6.28,6.28,0,0,0,2.83.8,6.28,6.28,0,0,1-1.94-8.4A17.87,17.87,0,0,0,15.08,7.71a6.88,6.88,0,0,1-.15-1.43A6.28,6.28,0,0,1,25.79,2a12.65,12.65,0,0,0,4-1.51A6.2,6.2,0,0,1,27,3.92a12.6,12.6,0,0,0,3.62-1A13.42,13.42,0,0,1,27.48,6.19Z" transform="translate(0 0)" fill="#fff"/></svg>