<svg id="Livello_1" data-name="Livello 1" xmlns="http://www.w3.org/2000/svg" viewBox="0 0 81.11 60.28"><defs><style>.cls-1{fill:#fff;stroke:#fff;stroke-width:0.3px;}</style></defs><g id="Group_35" data-name="Group 35"><path id="Path_35" data-name="Path 35" class="cls-1" d="M20,47.5a3.16,3.16,0,1,0,3.15,3.16A3.15,3.15,0,0,0,20,47.5Z"/><path id="Path_36" data-name="Path 36" class="cls-1" d="M74.33,28.66,71.61,17.78a4.74,4.74,0,0,0-3.28-8.16H55.71V4.88A4.74,4.74,0,0,0,51,.15H4.88A4.73,4.73,0,0,0,.15,4.88v41a4.74,4.74,0,0,0,4.73,4.74h5.69a9.47,9.47,0,0,0,18.94,0H58.86a9.47,9.47,0,0,0,18.94,0v-.27A4.75,4.75,0,0,0,81,45.92V36.45A7.89,7.89,0,0,0,74.33,28.66Zm-5.65-9.57,2.37,9.47H57.94l3.62-3.62a1.58,1.58,0,0,0-2.23-2.23h0l-3.62,3.62V19.09Zm1.23-4.74a1.57,1.57,0,0,1-1.58,1.58H55.71V12.78H68.33a1.57,1.57,0,0,1,1.58,1.57ZM20,57a6.32,6.32,0,1,1,6.31-6.31A6.32,6.32,0,0,1,20,57ZM29,47.5a9.47,9.47,0,0,0-17.85,0H4.88a1.57,1.57,0,0,1-1.57-1.58v-41A1.57,1.57,0,0,1,4.88,3.31H51a1.57,1.57,0,0,1,1.58,1.57V47.5ZM68.33,57a6.32,6.32,0,1,1,6.32-6.31A6.32,6.32,0,0,1,68.33,57Zm8.82-9.77a9.47,9.47,0,0,0-17.75.3H55.7V31.72H73.07a4.72,4.72,0,0,1,4.46,3.15H73.07a1.58,1.58,0,0,0,0,3.16H77.8v7.89A1.58,1.58,0,0,1,77.15,47.2Z"/><path id="Path_37" data-name="Path 37" class="cls-1" d="M27.93,9.62a14.21,14.21,0,1,0,14.2,14.21A14.21,14.21,0,0,0,27.93,9.62Zm0,25.25a11,11,0,1,1,11-11A11,11,0,0,1,27.93,34.87Z"/><path id="Path_38" data-name="Path 38" class="cls-1" d="M34.24,22.25H29.51V17.51a1.58,1.58,0,0,0-3.16,0v6.31a1.58,1.58,0,0,0,1.58,1.58h6.31a1.58,1.58,0,1,0,0-3.15Z"/></g></svg>