<svg xmlns="http://www.w3.org/2000/svg" viewBox="0 0 32.38 24.53"><path d="M21.18,10.81,14,6.9a1.32,1.32,0,0,0-1.78.52,1.28,1.28,0,0,0-.16.63v7.76a1.31,1.31,0,0,0,1.31,1.32A1.25,1.25,0,0,0,14,17l7.16-3.85a1.31,1.31,0,0,0,.53-1.78,1.39,1.39,0,0,0-.52-.53Zm-7.2,4V9L19.32,12Z" transform="translate(0 0)" fill="#fff"/><path d="M32.15,5.79v0A7.48,7.48,0,0,0,30.72,2,5.26,5.26,0,0,0,27.23.38l-.16,0H27C22.73,0,16.26,0,16.2,0h0C16.12,0,9.66,0,5.34.35H5.28l-.15,0A5.1,5.1,0,0,0,1.66,2.07,7.67,7.67,0,0,0,.24,5.76v0C.23,5.9,0,8.48,0,11.07V13.5c0,2.59.23,5.17.24,5.28h0a7.31,7.31,0,0,0,1.42,3.72,5.38,5.38,0,0,0,3.61,1.61l.32,0h.07c2.48.24,10.23.35,10.56.36h0c.06,0,6.53-.05,10.81-.36h.05l.18,0a5.07,5.07,0,0,0,3.45-1.65,7.74,7.74,0,0,0,1.41-3.69v0c0-.11.24-2.69.24-5.29V11.07C32.38,8.48,32.15,5.9,32.15,5.79ZM30.49,13.5c0,2.4-.21,4.87-.23,5.1a6,6,0,0,1-.93,2.62,3.13,3.13,0,0,1-2.24,1l-.2,0c-4.15.3-10.37.34-10.65.34s-8-.12-10.36-.34l-.4-.05a3.55,3.55,0,0,1-2.42-1l0,0a5.39,5.39,0,0,1-.91-2.6c0-.17-.23-2.67-.23-5.1V11.07c0-2.4.21-4.86.23-5.1a5.78,5.78,0,0,1,.93-2.63A3.27,3.27,0,0,1,5.34,2.26H5.5C9.7,2,16,1.9,16.19,1.9s6.49,0,10.65.35l.17,0a3.39,3.39,0,0,1,2.33,1h0A5.51,5.51,0,0,1,30.26,6c0,.16.23,2.66.23,5.1Z" transform="translate(0 0)" fill="#fff"/></svg>